<svg width="161" height="22" viewBox="0 0 161 22" fill="none" xmlns="http://www.w3.org/2000/svg" class="text-odin"><g clip-path="url(#clip0_7501_25207)"><path d="M1.61133 18.6679V3.61889L3.59372 1.63147H14.4365L16.3937 3.61386V18.6629L14.4365 20.6453H3.59372L1.61133 18.6629V18.6679ZM11.961 16.7963L12.3434 16.4139V5.87298L11.961 5.49059H6.039L5.65661 5.87298V16.4139L6.039 16.7963H11.961Z" fill="rgb(0,255,255,1)"></path><path d="M25.1936 18.5874V3.69937L23.9961 1.63647H37.0628L39.0451 3.61886V18.6679L37.0628 20.6503H23.9961L25.1936 18.5874ZM34.6225 16.7962L35.0049 16.4138V5.87295L34.6225 5.49056H29.2439V16.7912H34.6225V16.7962Z" fill="rgb(0,255,255,1)"></path><path d="M47.8255 18.6981V3.64405L46.6582 1.63147H53.1538L51.9563 3.72455V18.5573L53.1538 20.6503H46.6884L47.8305 18.6931L47.8255 18.6981Z" fill="rgb(0,255,255,1)"></path><path d="M61.9533 18.834V3.45285L60.7559 1.63147H65.893L72.142 8.83147V3.39751L70.9747 1.63147H77.4955L76.2728 3.45285V18.829L77.4955 20.6503H70.9999L72.142 18.9396V14.8642L66.1093 7.96103V18.9095L67.2515 20.6503H60.7559L61.9533 18.829V18.834Z" fill="rgb(0,255,255,1)"></path><path d="M85.1035 11.6591L87.6847 9.078L90.2658 11.6591L87.6847 14.2403L85.1035 11.6591Z" fill="rgb(0,255,255,1)"></path><path d="M99.0957 18.5623V3.72455L97.873 1.63147H111.458V6.68304L109.365 5.48556H103.141V9.36983H110.23L108.575 13.229H103.141V18.5824L104.338 20.6453H97.873L99.0957 18.5522V18.5623Z" fill="rgb(0,255,255,1)"></path><path d="M120.288 18.6679V3.75471L119.065 1.63647H125.561L124.338 3.75471V16.4138L124.721 16.7962H130.155L130.537 16.4138V3.75471L129.289 1.63647H135.81L134.587 3.75471V18.6679L132.605 20.6503H122.281L120.298 18.6679H120.288Z" fill="rgb(0,255,255,1)"></path><path d="M144.606 18.834V3.45285L143.408 1.63147H148.545L154.794 8.83147V3.39751L153.627 1.63147H160.148L158.925 3.45285V18.829L160.148 20.6503H153.652L154.794 18.9396V14.8642L148.762 7.96103V18.9095L149.904 20.6503H143.408L144.606 18.829V18.834Z" fill="rgb(0,255,255,1)"></path></g><defs><clipPath id="clip0_7501_25207"><rect width="160" height="20.1258" fill="white" transform="translate(0.876953 0.937134)"></rect></clipPath></defs></svg>